<svg width="83" height="72" viewBox="0 0 83 72" fill="none" xmlns="http://www.w3.org/2000/svg">
<g clip-path="url(#clip0_34_519)">
<path d="M26.5651 33.6663C19.189 23.4627 25.2128 14.8574 27.3027 11.6611M29.6384 9.07946C32.0152 6.37491 37.7521 0.96582 41.686 0.96582C46.6033 0.96582 60.7407 11.1693 60.7407 23.5857M60.8637 26.9049C60.8637 27.5196 59.5114 32.0681 57.0527 33.7892M24.5981 50.1394V47.3119C24.5981 41.6088 29.2215 36.9855 34.9246 36.9855H48.3332C49.465 36.9855 50.5872 37.1938 51.6436 37.6001M59.0196 50.1394L59.0781 49.2916C59.3495 45.3568 57.6738 41.5392 54.594 39.0753M34.5558 43.8698C38.8243 47.3132 44.9165 47.3132 49.1849 43.8698M39.5961 27.1508C39.932 29.9088 43.9317 29.9088 44.2676 27.1508M36.7686 50.1394V42.9467C36.7686 41.2358 37.3472 39.5752 38.4104 38.2346L38.603 37.9917C39.2461 37.1809 39.5961 35.9305 39.5961 34.8956M47.0951 50.1394V42.9467C47.0951 41.2358 46.5165 39.5752 45.4533 38.2346L45.2606 37.9917C44.6176 37.1809 44.2676 35.9305 44.2676 34.8956M37.1374 40.9194L39.2417 42.0914C40.9524 43.0442 43.0342 43.0442 44.7449 42.0914L46.8492 40.9194M26.5651 40.7964C25.6226 39.731 24.3031 36.9609 26.5651 34.4039C29.3926 31.2076 31.1136 32.314 31.8512 28.9948M57.1757 40.7964C58.1181 39.731 59.4376 36.9609 57.1757 34.4039C54.3482 31.2076 52.6271 32.5598 51.8895 29.2406M30.7448 18.2995V23.3398C30.7448 29.5182 35.7534 34.5268 41.9318 34.5268C48.1102 34.5268 53.1188 29.5182 53.1188 23.3398V18.2995M30.4543 21.9875C29.4857 22.1461 27.5486 22.9154 27.5486 24.7235C27.5486 26.9836 29.672 27.4594 31.2366 26.9836M53.6031 21.9875C54.5071 22.1461 56.3151 22.9154 56.3151 24.7235C56.3151 26.9836 54.3333 27.4594 52.873 26.9836M30.9907 23.3398C33.7362 22.8071 39.4731 20.291 40.4566 14.4886M52.75 23.3398C50.0045 22.8071 44.2676 20.291 43.2841 14.4886M55.3316 32.4369C59.4837 23.8485 53.2268 13.8739 43.6873 13.8739H39.9505C30.4208 13.8739 24.3165 24.016 28.7779 32.4369" stroke="#CAC6A0" stroke-width="1.22934" stroke-linecap="round"/>
<circle cx="37.8748" cy="24.2004" r="0.983472" fill="#CAC6A0"/>
<circle cx="46.2344" cy="24.2004" r="0.983472" fill="#CAC6A0"/>
<path d="M82 30.5C82 52.8675 63.8675 71 41.5 71C19.1325 71 1 52.8675 1 30.5" stroke="#CAC6A0"/>
</g>
<defs>
<clipPath id="clip0_34_519">
<rect width="83" height="72" fill="white"/>
</clipPath>
</defs>
</svg>
